<svg width="16" height="16" viewBox="0 0 16 16" fill="none" xmlns="http://www.w3.org/2000/svg">
  <path d="M4.41805 4.01623C4.2553 4.04749 4.11446 4.15845 4.04403 4.30848C4.0096 4.38193 4.00178 4.41944 4.00178 4.52259C4.00178 4.76483 3.89536 4.64449 5.68408 6.42924L7.26466 8.0077L5.67 9.60179C4.3758 10.8974 4.07064 11.2099 4.0409 11.274C3.9877 11.385 3.98613 11.585 4.03777 11.696C4.08316 11.7944 4.18331 11.8976 4.28347 11.9507C4.39614 12.0086 4.57611 12.0164 4.706 11.9695C4.79676 11.9351 4.8531 11.882 6.40082 10.3379L8.00018 8.74223L9.59328 10.3301C10.8718 11.6053 11.2005 11.9257 11.2631 11.9554C11.3288 11.9867 11.3648 11.9929 11.49 11.9929C11.6199 11.9929 11.648 11.9867 11.7169 11.9507C11.8139 11.9007 11.9188 11.7898 11.9641 11.6913C12.0142 11.585 12.0111 11.3834 11.9595 11.274C11.9297 11.2099 11.6246 10.8974 10.3304 9.60179L8.73569 8.0077L10.3163 6.42924C12.105 4.64449 11.9986 4.76483 11.9986 4.52259C11.9986 4.421 11.9907 4.38193 11.9579 4.31161C11.8311 4.0428 11.5134 3.9334 11.2474 4.06468C11.2067 4.085 10.6355 4.64293 9.59328 5.68377L8.00018 7.27317L6.40864 5.68377C5.36483 4.64293 4.79364 4.085 4.75295 4.06468C4.69974 4.03811 4.52603 3.99435 4.4963 4.0006C4.4916 4.00217 4.45561 4.00842 4.41805 4.01623Z" fill="#79747F" />
</svg>