<svg width="28" height="26" viewBox="0 0 28 26" fill="none" xmlns="http://www.w3.org/2000/svg">
<path fill-rule="evenodd" clip-rule="evenodd" d="M21 22.5H17.5C16.5334 22.5 15.75 21.7166 15.75 20.75V16.0833C15.75 15.1168 16.5334 14.3333 17.5 14.3333H24.5C25.4666 14.3333 26.25 15.1168 26.25 16.0833V20.75C26.25 21.7166 25.4666 22.5 24.5 22.5H23.625V24.25L21 22.5Z" fill="#EEEEFF" stroke="#434B74" stroke-width="1.5" stroke-linecap="round" stroke-linejoin="round"/>
<path fill-rule="evenodd" clip-rule="evenodd" d="M12 18H18C19.657 18 21 16.657 21 15V7C21 5.343 19.657 4 18 4H6C4.343 4 3 5.343 3 7V15C3 16.657 4.343 18 6 18H7.5V21L12 18Z" fill="#FFF1CB" stroke="#434B74" stroke-width="1.5" stroke-linecap="round" stroke-linejoin="round"/>
<path d="M12.6768 11.3232C12.7744 11.4209 12.7744 11.5791 12.6768 11.6768C12.5791 11.7744 12.4209 11.7744 12.3232 11.6768C12.2256 11.5791 12.2256 11.4209 12.3232 11.3232C12.4209 11.2256 12.5791 11.2256 12.6768 11.3232" stroke="#434B74" stroke-width="1.5" stroke-linecap="round" stroke-linejoin="round"/>
<path d="M16.6768 11.3232C16.7744 11.4209 16.7744 11.5791 16.6768 11.6768C16.5791 11.7744 16.4209 11.7744 16.3232 11.6768C16.2256 11.5791 16.2256 11.4209 16.3232 11.3232C16.4209 11.2256 16.5791 11.2256 16.6768 11.3232" stroke="#434B74" stroke-width="1.5" stroke-linecap="round" stroke-linejoin="round"/>
<path d="M8.67678 11.3232C8.77441 11.4209 8.77441 11.5791 8.67678 11.6768C8.57915 11.7744 8.42085 11.7744 8.32322 11.6768C8.22559 11.5791 8.22559 11.4209 8.32322 11.3232C8.42085 11.2256 8.57915 11.2256 8.67678 11.3232" stroke="#434B74" stroke-width="1.5" stroke-linecap="round" stroke-linejoin="round"/>
</svg>
