<svg width="24" height="25" viewBox="0 0 24 25" fill="none" xmlns="http://www.w3.org/2000/svg">
  <path d="M16.6667 1.33334V6.00001" stroke="currentColor" stroke-width="1.5" stroke-linecap="round" stroke-linejoin="round" />
  <path d="M7.33333 1.33334V6.00001" stroke="currentColor" stroke-width="1.5" stroke-linecap="round" stroke-linejoin="round" />
  <path d="M1.5 9.50002H22.5" stroke="currentColor" stroke-width="1.5" stroke-linecap="round" stroke-linejoin="round" />
  <path fill-rule="evenodd" clip-rule="evenodd" d="M20.1667 3.66669H3.83333C2.54417 3.66669 1.5 4.71085 1.5 6.00002V21.1667C1.5 22.4559 2.54417 23.5 3.83333 23.5H20.1667C21.4558 23.5 22.5 22.4559 22.5 21.1667V6.00002C22.5 4.71085 21.4558 3.66669 20.1667 3.66669Z" stroke="currentColor" stroke-width="1.5" stroke-linecap="round" stroke-linejoin="round" />
  <path d="M6.18202 13.85C6.02102 13.85 5.89036 13.9806 5.89152 14.1416C5.89152 14.3026 6.02219 14.4333 6.18319 14.4333C6.34419 14.4333 6.47486 14.3026 6.47486 14.1416C6.47486 13.9806 6.34419 13.85 6.18202 13.85" stroke="currentColor" stroke-width="1.5" stroke-linecap="round" stroke-linejoin="round" />
  <path d="M12.0154 13.85C11.8544 13.85 11.7237 13.9806 11.7249 14.1416C11.7249 14.3026 11.8556 14.4333 12.0166 14.4333C12.1776 14.4333 12.3082 14.3026 12.3082 14.1416C12.3082 13.9806 12.1776 13.85 12.0154 13.85" stroke="currentColor" stroke-width="1.5" stroke-linecap="round" stroke-linejoin="round" />
  <path d="M17.8486 13.85C17.6876 13.85 17.557 13.9806 17.5581 14.1416C17.5581 14.3026 17.6888 14.4333 17.8498 14.4333C18.0108 14.4333 18.1415 14.3026 18.1415 14.1416C18.1415 13.9806 18.0108 13.85 17.8486 13.85" stroke="currentColor" stroke-width="1.5" stroke-linecap="round" stroke-linejoin="round" />
  <path d="M6.18202 18.5166C6.02102 18.5166 5.89036 18.6473 5.89152 18.8083C5.89152 18.9693 6.02219 19.0999 6.18319 19.0999C6.34419 19.0999 6.47486 18.9693 6.47486 18.8083C6.47486 18.6473 6.34419 18.5166 6.18202 18.5166" stroke="currentColor" stroke-width="1.5" stroke-linecap="round" stroke-linejoin="round" />
  <path d="M12.0154 18.5166C11.8544 18.5166 11.7237 18.6473 11.7249 18.8083C11.7249 18.9693 11.8556 19.0999 12.0166 19.0999C12.1776 19.0999 12.3082 18.9693 12.3082 18.8083C12.3082 18.6473 12.1776 18.5166 12.0154 18.5166" stroke="currentColor" stroke-width="1.5" stroke-linecap="round" stroke-linejoin="round" />
</svg>